HIERARCHY
ROOT Hips
{
	OFFSET -0.001795 -0.223333 0.028219
	CHANNELS 6 Xposition Yposition Zposition Zrotation Yrotation Xrotation
	JOINT LeftUpLeg
	{
		OFFSET 0.069520 -0.091406 -0.006815
		CHANNELS 3 Zrotation Yrotation Xrotation
		JOINT LeftLeg
		{
			OFFSET 0.034277 -0.375199 -0.004496
			CHANNELS 3 Zrotation Yrotation Xrotation
			JOINT LeftFoot
			{
				OFFSET -0.013596 -0.397961 -0.043693
				CHANNELS 3 Zrotation Yrotation Xrotation
				JOINT LeftToe
				{
					OFFSET 0.026358 -0.055791 0.119288
					CHANNELS 3 Zrotation Yrotation Xrotation
					End Site
					{
						OFFSET 0.000000 0.000000 0.000000
					}
				}
			}
		}
	}
	JOINT RightUpLeg
	{
		OFFSET -0.067670 -0.090522 -0.004320
		CHANNELS 3 Zrotation Yrotation Xrotation
		JOINT RightLeg
		{
			OFFSET -0.038290 -0.382569 -0.008850
			CHANNELS 3 Zrotation Yrotation Xrotation
			JOINT RightFoot
			{
				OFFSET 0.015774 -0.398415 -0.042312
				CHANNELS 3 Zrotation Yrotation Xrotation
				JOINT RightToe
				{
					OFFSET -0.025372 -0.048144 0.123348
					CHANNELS 3 Zrotation Yrotation Xrotation
					End Site
					{
						OFFSET 0.000000 0.000000 0.000000
					}
				}
			}
		}
	}
	JOINT Spine
	{
		OFFSET -0.002533 0.108963 -0.026696
		CHANNELS 3 Zrotation Yrotation Xrotation
		JOINT Spine1
		{
			OFFSET 0.005487 0.135180 0.001092
			CHANNELS 3 Zrotation Yrotation Xrotation
			JOINT Spine2
			{
				OFFSET 0.001457 0.052922 0.025425
				CHANNELS 3 Zrotation Yrotation Xrotation
				JOINT Neck
				{
					OFFSET -0.002778 0.213870 -0.042857
					CHANNELS 3 Zrotation Yrotation Xrotation
					JOINT Head
					{
						OFFSET 0.005152 0.064970 0.051349
						CHANNELS 3 Zrotation Yrotation Xrotation
						End Site
						{
							OFFSET 0.000000 0.000000 0.000000
						}
					}
				}
				JOINT LeftShoulder
				{
					OFFSET 0.078845 0.121749 -0.034090
					CHANNELS 3 Zrotation Yrotation Xrotation
					JOINT LeftArm
					{
						OFFSET 0.090977 0.030469 -0.008868
						CHANNELS 3 Zrotation Yrotation Xrotation
						JOINT LeftForeArm
						{
							OFFSET 0.259612 -0.012772 -0.027456
							CHANNELS 3 Zrotation Yrotation Xrotation
							JOINT LeftHand
							{
								OFFSET 0.249234 0.008986 -0.001171
								CHANNELS 3 Zrotation Yrotation Xrotation
								End Site
								{
									OFFSET 0.000000 0.000000 0.000000
								}
							}
						}
					}
				}
				JOINT RightShoulder
				{
					OFFSET -0.081759 0.118833 -0.038615
					CHANNELS 3 Zrotation Yrotation Xrotation
					JOINT RightArm
					{
						OFFSET -0.096012 0.032551 -0.009143
						CHANNELS 3 Zrotation Yrotation Xrotation
						JOINT RightForeArm
						{
							OFFSET -0.253742 -0.013329 -0.021401
							CHANNELS 3 Zrotation Yrotation Xrotation
							JOINT RightHand
							{
								OFFSET -0.255298 0.007772 -0.005559
								CHANNELS 3 Zrotation Yrotation Xrotation
								End Site
								{
									OFFSET 0.000000 0.000000 0.000000
								}
							}
						}
					}
				}
			}
		}
	}
}
MOTION
Frames: 7
Frame Time: 0.050000
0.000000 0.648897 0.000000 -24.039826 20.884054 -12.042530 49.379704 -8.515890 0.351968 -11.239492 0.106237 54.372615 20.940509 -19.874562 -77.383562 0.000000 0.000000 0.000000 -9.972372 -0.758414 -2.249141 16.710544 -21.711057 59.651922 -6.588576 -5.660825 -38.015151 0.000000 0.000000 0.000000 -23.340263 -2.291128 -2.076725 -0.819992 1.289468 -17.409980 -5.312719 1.820708 26.124195 2.751964 1.483318 -16.717178 0.000000 0.000000 0.000000 4.246745 -3.824023 1.836905 -63.871703 -21.065190 -1.288123 -128.174140 -41.468447 72.271499 0.000000 0.000000 0.000000 10.598255 4.849029 4.220757 78.603348 0.474445 -6.577511 119.925230 45.477307 92.323224 0.000000 0.000000 0.000000
-0.000250 0.667720 0.002043 -22.861902 20.488209 -11.828391 46.881310 -6.604768 -1.825916 -8.361976 -2.119650 55.412045 21.482835 -27.537434 -74.835612 0.000000 0.000000 0.000000 -8.948900 -0.554229 -5.567171 13.685469 -20.872753 65.106829 -6.130620 -8.150716 -28.535638 0.000000 0.000000 0.000000 -26.922771 -3.347676 -4.048982 -0.465747 1.148088 -17.746254 -5.255749 7.580376 25.965261 3.931424 0.905602 -14.148916 0.000000 0.000000 0.000000 7.019430 -4.031478 2.665005 -65.113668 -21.220529 -2.800754 -124.346298 -42.193273 65.551569 0.000000 0.000000 0.000000 11.190378 0.540351 2.773629 80.284264 -5.882884 -9.809660 109.902045 36.888418 70.637092 0.000000 0.000000 0.000000
-0.000094 0.689242 0.004133 -22.945968 19.461458 -11.746961 45.155116 -5.191974 -3.893056 -5.646472 -3.829756 55.077382 21.349841 -36.913507 -70.938076 0.000000 0.000000 0.000000 -4.745638 0.048887 -5.491770 11.569263 -17.020250 61.249161 -6.043010 -12.324887 -25.375214 0.000000 0.000000 0.000000 -23.945535 -3.412656 -7.512753 0.891201 0.609468 -14.045014 -8.844948 7.116374 24.650544 3.808886 -1.326200 -4.947374 0.000000 0.000000 0.000000 0.598883 -2.778489 0.736066 -60.809114 -16.685368 -3.564673 -118.235661 -48.525007 68.253810 0.000000 0.000000 0.000000 16.829650 1.450743 4.243750 72.979770 -3.965314 -9.870503 103.358878 37.682856 63.651273 0.000000 0.000000 0.000000
-0.001070 0.710495 0.006362 -22.647070 17.435244 -12.706963 43.941669 -5.139568 -1.344008 -5.713449 -3.316985 53.447515 16.362738 -37.181989 -60.794102 0.000000 0.000000 0.000000 -4.470270 0.114967 -5.738280 9.670541 -13.716838 59.650390 -3.768824 -5.595694 -15.432559 0.000000 0.000000 0.000000 -23.182864 -3.265369 -7.817106 0.051923 0.872059 -15.198565 -8.732734 8.208486 25.511556 0.678446 2.450350 -10.178095 0.000000 0.000000 0.000000 2.983290 -1.223172 0.920348 -62.316146 -14.712988 -5.449351 -115.739498 -47.621622 65.341784 0.000000 0.000000 0.000000 15.122450 3.584459 4.914743 75.417459 -4.729681 -10.199613 99.570720 40.444954 62.742495 0.000000 0.000000 0.000000
-0.003043 0.730871 0.010292 -20.820083 16.399563 -13.044031 40.264244 -4.554849 0.274330 -5.494543 -3.028523 50.123115 11.896182 -35.290598 -51.485276 0.000000 0.000000 0.000000 -4.265756 0.060429 -4.347656 8.112136 -11.595941 58.910235 -3.272503 -4.868271 -12.754697 0.000000 0.000000 0.000000 -23.537102 -3.747622 -9.817937 -0.219121 0.887140 -12.992543 -8.263968 8.343154 25.389713 0.481838 2.542066 -10.250105 0.000000 0.000000 0.000000 -0.203153 -2.363512 0.447714 -58.107829 -11.394434 -5.819792 -114.179698 -50.048312 66.898062 0.000000 0.000000 0.000000 15.223959 3.265689 4.623356 75.087611 -4.229554 -10.061855 92.247051 38.463844 53.714640 0.000000 0.000000 0.000000
-0.006217 0.747754 0.017020 -19.405270 15.395346 -13.805207 38.281357 -4.256379 1.876455 -5.129762 -2.947819 48.591632 4.186845 -37.445795 -36.559544 0.000000 0.000000 0.000000 -4.897311 -0.035352 -3.792926 7.590779 -10.721051 59.770723 -2.387431 -3.853299 -7.160079 0.000000 0.000000 0.000000 -22.908738 -3.897581 -11.129507 0.181687 0.634023 -10.625179 -8.102228 7.570229 23.392385 -0.904989 2.995216 -8.008173 0.000000 0.000000 0.000000 -3.108537 -1.936084 -0.343981 -55.888856 -7.885855 -6.393305 -102.776866 -48.713623 55.207656 0.000000 0.000000 0.000000 13.272733 4.951945 4.730410 75.929231 -6.214669 -11.225613 88.466728 39.757069 50.677966 0.000000 0.000000 0.000000
-0.010654 0.758128 0.027451 -17.955248 15.295739 -14.253386 37.282304 -4.634416 4.255668 -6.266192 -1.887798 45.224190 -0.432561 -34.515772 -26.717055 0.000000 0.000000 0.000000 -6.345761 -0.221260 -3.126184 7.702077 -10.335617 58.850812 -1.756540 2.897947 -16.085589 0.000000 0.000000 0.000000 -22.031811 -3.845201 -11.594690 0.190203 0.678063 -11.499011 -7.938759 6.450669 22.690840 -1.055310 2.582903 -5.311511 0.000000 0.000000 0.000000 -5.104720 -1.837014 -0.804190 -55.228990 -3.883179 -7.651509 -99.648927 -44.927029 48.599067 0.000000 0.000000 0.000000 14.106051 5.209057 4.872419 74.658089 -8.064834 -12.687592 82.824947 39.377634 45.431543 0.000000 0.000000 0.000000
